<svg xmlns="http://www.w3.org/2000/svg" width="1400" height="560" viewBox="0 0 1400 560" role="img" aria-label="FaultFerret logo">
  <defs>
    <linearGradient id="bg" x1="0" y1="0" x2="1" y2="1">
      <stop offset="0%" stop-color="#0f172a"/>
      <stop offset="100%" stop-color="#1e293b"/>
    </linearGradient>
    <linearGradient id="accent" x1="0" y1="0" x2="1" y2="1">
      <stop offset="0%" stop-color="#f59e0b"/>
      <stop offset="100%" stop-color="#f97316"/>
    </linearGradient>
    <filter id="shadow" x="-20%" y="-20%" width="140%" height="140%">
      <feDropShadow dx="0" dy="8" stdDeviation="10" flood-color="#000" flood-opacity="0.35"/>
    </filter>
  </defs>

  <rect x="0" y="0" width="1400" height="560" rx="40" fill="url(#bg)"/>

  <g transform="translate(84,80)" filter="url(#shadow)">
    <rect x="0" y="0" width="400" height="400" rx="84" fill="#0b1220" stroke="#334155" stroke-width="4"/>

    <path d="M95 276 C120 206, 170 150, 244 132 C292 120, 332 134, 350 164 C366 191, 352 219, 324 233 C299 245, 272 241, 250 226 C239 218, 228 217, 218 225 C196 245, 175 263, 144 280 C129 289, 110 289, 95 276 Z" fill="#e2e8f0"/>
    <path d="M240 132 C276 120, 304 124, 320 146 C329 159, 331 173, 326 186 C317 173, 307 166, 293 162 C274 157, 257 162, 240 173 Z" fill="#94a3b8"/>
    <circle cx="286" cy="183" r="10" fill="#0f172a"/>
    <circle cx="289" cy="180" r="3" fill="#ffffff"/>
    <path d="M154 292 C186 276, 210 254, 232 230 C241 220, 253 219, 263 227 C276 237, 292 244, 309 247 C289 274, 260 300, 222 318 C194 331, 170 329, 154 313 Z" fill="url(#accent)"/>

    <circle cx="96" cy="96" r="50" fill="url(#accent)"/>
    <path d="M76 64 H119 V80 H93 V96 H115 V111 H93 V130 H76 Z" fill="#0b1220"/>
  </g>

  <g transform="translate(540,154)">
    <text x="0" y="126" fill="#f8fafc" font-size="124" font-weight="800" font-family="-apple-system,BlinkMacSystemFont,Segoe UI,Inter,Helvetica,Arial,sans-serif" letter-spacing="0.5">FlawFerret</text>
    <text x="2" y="186" fill="#94a3b8" font-size="34" font-weight="500" font-family="-apple-system,BlinkMacSystemFont,Segoe UI,Inter,Helvetica,Arial,sans-serif">Capture QA context. Create better Jira bugs faster.</text>
  </g>
</svg>
